<?xml version="1.0" encoding="UTF-8"?>
<!DOCTYPE svg PUBLIC "-//W3C//DTD SVG 1.1//EN" "http://www.w3.org/Graphics/SVG/1.1/DTD/svg11.dtd">
<!-- Creator: CorelDRAW 2020 (64-Bit) -->
<svg xmlns="http://www.w3.org/2000/svg" xml:space="preserve" width="3300px" height="2550px" version="1.1" style="shape-rendering:geometricPrecision; text-rendering:geometricPrecision; image-rendering:optimizeQuality; fill-rule:evenodd; clip-rule:evenodd"
viewBox="1145 1150 1000 320"
 xmlns:xlink="http://www.w3.org/1999/xlink"
 xmlns:xodm="http://www.corel.com/coreldraw/odm/2003">
 <defs>
  <style type="text/css">
   <![CDATA[
    .fil1 {fill:#003399}
    .fil2 {fill:#003399;fill-rule:nonzero}
    .fil3 {fill:gray;fill-rule:nonzero}
    .fil0 {fill:#FF6600;fill-rule:nonzero}
   ]]>
  </style>
 </defs>
 <g id="Layer_x0020_1">
  <metadata id="CorelCorpID_0Corel-Layer"/>
  <g id="_2748801968736">
   <polygon class="fil0" points="1189.19,1384.31 1189.19,1292.16 1285.5,1292.16 1285.5,1384.31 1323.55,1384.31 1323.55,1167.01 1285.5,1167.01 1285.5,1256.78 1189.19,1256.78 1189.19,1167.01 1151.14,1167.01 1151.14,1384.31 "/>
   <path class="fil0" d="M1591.21 1236.87c-5.95,-1.49 -11,-2.08 -16.05,-2.08 -19.62,0 -33.59,9.81 -39.84,24.37l-2.08 -21.4 -34.18 0 0 146.55 36.26 0 0 -71.35c0,-28.53 16.35,-42.5 42.51,-42.5l13.38 0 0 -33.59z"/>
   <path class="fil0" d="M1676.52 1388.17c38.34,0 65.1,-19.32 71.34,-51.43l-33.59 0c-4.16,13.98 -17.24,21.7 -37.16,21.7 -24.07,0 -37.75,-13.07 -40.42,-38.94l110.57 -0.29 0 -11c0,-45.78 -27.94,-75.21 -71.93,-75.21 -43.1,0 -73.12,31.81 -73.12,77.88 0,45.48 30.61,77.29 74.31,77.29zm-0.89 -125.44c21.7,0 35.67,13.38 35.67,33.59l-73.72 0c3.57,-22 16.64,-33.59 38.05,-33.59z"/>
   <path class="fil1" d="M1780.26 1304.94c0,51.12 33.3,82.93 85.91,82.93 52.91,0 86.2,-32.1 86.2,-82.93 0,-48.98 -0.55,-98.96 -0.55,-147.19l18.72 0 -37.45 -60.13 -37.44 60.13 18.72 0c0,48.2 -0.05,96.54 -0.05,144.81 0,30.91 -17.24,48.45 -48.15,48.45 -30.92,0 -47.86,-17.24 -47.86,-48.45l0 -135.55 -38.05 0 0 137.93z"/>
   <path class="fil2" d="M1993.69 1452.38l36.26 0 0 -87.69c9.22,14.86 28.24,23.48 50.24,23.48 43.7,0 68.67,-33.29 68.67,-79.07 0,-46.07 -27.35,-76.1 -68.67,-76.1 -22.29,0 -41.62,9.81 -50.53,26.76l-2.38 -22.3 -33.59 0 0 214.92zm36.56 -141.5c0,-26.45 16.35,-44.88 41.32,-44.88 25.56,0 40.72,18.73 40.72,44.88 0,26.16 -15.16,44.59 -40.72,44.59 -24.97,0 -41.32,-18.13 -41.32,-44.59z"/>
   <path class="fil3" d="M1572.57 1401.7l0 49.8 -5.24 0 0 -49.8 5.24 0zm-21.26 2.47l0 -4.8 37.35 0 0 4.8 -37.35 0z"/>
   <path id="1" class="fil3" d="M1604.17 1452.38c-3.4,0 -6.39,-0.78 -8.99,-2.33 -2.6,-1.56 -4.63,-3.72 -6.08,-6.48 -1.46,-2.77 -2.19,-6 -2.19,-9.69 0,-3.64 0.72,-6.85 2.15,-9.65 1.43,-2.79 3.41,-4.97 5.94,-6.55 2.52,-1.58 5.46,-2.37 8.81,-2.37 3.2,0 6,0.71 8.41,2.12 2.4,1.4 4.27,3.36 5.6,5.86 1.34,2.5 2.01,5.42 2.01,8.77l0 2.48 -30.15 0 0.15 -3.64 24.97 0c0,-3.4 -1.01,-6.13 -3.02,-8.19 -2.01,-2.07 -4.67,-3.1 -7.97,-3.1 -2.43,0 -4.55,0.56 -6.37,1.68 -1.83,1.11 -3.22,2.7 -4.19,4.76 -0.97,2.07 -1.46,4.51 -1.46,7.32 0,4.66 1.08,8.28 3.24,10.85 2.16,2.57 5.23,3.86 9.21,3.86 2.87,0 5.22,-0.6 7.07,-1.82 1.84,-1.21 3.08,-2.98 3.71,-5.31l4.81 0c-0.93,3.68 -2.72,6.51 -5.39,8.48 -2.67,1.97 -6.1,2.95 -10.27,2.95z"/>
   <path id="2" class="fil3" d="M1625.36 1433.96c0,-3.69 0.72,-6.93 2.15,-9.73 1.43,-2.79 3.42,-4.97 5.97,-6.55 2.55,-1.58 5.52,-2.37 8.92,-2.37 4.08,0 7.51,1.1 10.3,3.28 2.79,2.19 4.53,5.1 5.21,8.74l-5.03 0c-0.68,-2.43 -1.96,-4.3 -3.86,-5.61 -1.89,-1.31 -4.07,-1.96 -6.55,-1.96 -2.33,0 -4.42,0.58 -6.26,1.74 -1.85,1.17 -3.29,2.81 -4.33,4.92 -1.05,2.11 -1.57,4.6 -1.57,7.46 0,2.82 0.49,5.27 1.46,7.36 0.97,2.08 2.34,3.71 4.11,4.88 1.77,1.16 3.85,1.74 6.23,1.74 2.67,0 4.97,-0.66 6.91,-2 1.95,-1.33 3.26,-3.14 3.94,-5.42l5.09 0c-0.53,2.37 -1.55,4.46 -3.06,6.26 -1.5,1.79 -3.36,3.19 -5.57,4.19 -2.2,0.99 -4.64,1.49 -7.31,1.49 -3.35,0 -6.28,-0.77 -8.78,-2.3 -2.5,-1.53 -4.45,-3.67 -5.86,-6.44 -1.41,-2.77 -2.11,-6 -2.11,-9.68z"/>
   <path id="3" class="fil3" d="M1670.72 1451.43l-5.02 0 0 -53.01 5.02 0 0 23.96c1.12,-2.14 2.73,-3.85 4.84,-5.14 2.12,-1.28 4.65,-1.93 7.61,-1.93 4.66,0 8.06,1.34 10.2,4.01 2.13,2.67 3.2,6.21 3.2,10.63l0 21.55 -5.02 0 0 -20.46c0,-2.76 -0.39,-4.96 -1.17,-6.59 -0.77,-1.62 -1.87,-2.79 -3.27,-3.49 -1.41,-0.71 -3.04,-1.06 -4.88,-1.06 -2.53,0 -4.64,0.56 -6.34,1.68 -1.7,1.11 -2.98,2.61 -3.86,4.47 -0.87,1.87 -1.31,3.95 -1.31,6.23l0 19.15z"/>
   <path id="4" class="fil3" d="M1749.14 1452.3c-4.85,0 -9.11,-1.12 -12.77,-3.38 -3.67,-2.26 -6.53,-5.4 -8.6,-9.43 -2.06,-4.03 -3.09,-8.71 -3.09,-14.05 0,-5.34 1.04,-10.04 3.13,-14.09 2.09,-4.06 5,-7.21 8.74,-9.47 3.74,-2.26 8.03,-3.39 12.89,-3.39 3.78,0 7.2,0.71 10.26,2.12 3.06,1.4 5.63,3.38 7.72,5.93 2.09,2.55 3.47,5.57 4.15,9.07l-5.61 0c-1.11,-3.79 -3.15,-6.75 -6.11,-8.89 -2.96,-2.13 -6.51,-3.2 -10.63,-3.2 -3.79,0 -7.13,0.91 -10.01,2.73 -2.89,1.82 -5.13,4.37 -6.7,7.65 -1.58,3.27 -2.37,7.12 -2.37,11.54 0,4.32 0.8,8.13 2.4,11.43 1.6,3.3 3.84,5.86 6.7,7.68 2.87,1.82 6.19,2.73 9.98,2.73 4.12,0 7.72,-1.04 10.77,-3.13 3.06,-2.09 5.15,-4.86 6.27,-8.3l5.6 0c-0.77,3.25 -2.24,6.12 -4.4,8.59 -2.16,2.48 -4.82,4.41 -7.98,5.79 -3.15,1.38 -6.6,2.07 -10.34,2.07z"/>
   <path id="5" class="fil3" d="M1789.26 1452.38c-3.73,0 -6.66,-0.97 -8.77,-2.91 -2.11,-1.95 -3.17,-4.45 -3.17,-7.5 0,-3.26 1.17,-5.85 3.5,-7.8 2.33,-1.94 5.56,-3.08 9.68,-3.42l11.65 -0.95 0 -1.16c0,-2.33 -0.41,-4.16 -1.23,-5.5 -0.83,-1.33 -1.95,-2.27 -3.35,-2.8 -1.41,-0.53 -2.99,-0.8 -4.74,-0.8 -3.1,0 -5.51,0.65 -7.21,1.96 -1.69,1.31 -2.54,3.16 -2.54,5.54l-4.59 0c0,-2.38 0.61,-4.44 1.82,-6.19 1.21,-1.75 2.91,-3.11 5.1,-4.08 2.18,-0.97 4.7,-1.46 7.57,-1.46 2.77,0 5.19,0.48 7.28,1.42 2.09,0.95 3.75,2.41 4.99,4.37 1.24,1.97 1.85,4.51 1.85,7.61l0 22.79 -4.22 0 -0.65 -6.19c-1.07,2.24 -2.76,3.97 -5.06,5.21 -2.31,1.24 -4.94,1.86 -7.91,1.86zm1.17 -4.08c3.74,0 6.63,-1.19 8.67,-3.57 2.03,-2.38 3.05,-5.46 3.05,-9.25l0 -1.89 -10.41 0.8c-3.3,0.29 -5.68,1.12 -7.13,2.48 -1.46,1.36 -2.19,3.01 -2.19,4.95 0,2.14 0.73,3.75 2.19,4.84 1.45,1.09 3.39,1.64 5.82,1.64z"/>
   <path id="6" class="fil3" d="M1835.57 1415.83l0 4.51 -2.76 0c-3.25,0 -5.84,0.99 -7.76,2.98 -1.91,2 -2.87,4.69 -2.87,8.09l0 20.09 -5.03 0 0 -35.24 4.74 0 0.43 6.92 -0.51 0c0.49,-2.28 1.68,-4.14 3.57,-5.57 1.89,-1.43 4.2,-2.15 6.92,-2.15 0.53,0 1.07,0.03 1.6,0.07 0.53,0.05 1.09,0.15 1.67,0.3z"/>
   <path id="7" class="fil3" d="M1855.67 1452.38c-3.4,0 -6.39,-0.78 -8.99,-2.33 -2.6,-1.56 -4.62,-3.72 -6.08,-6.48 -1.46,-2.77 -2.18,-6 -2.18,-9.69 0,-3.64 0.71,-6.85 2.14,-9.65 1.44,-2.79 3.41,-4.97 5.94,-6.55 2.52,-1.58 5.46,-2.37 8.81,-2.37 3.2,0 6.01,0.71 8.41,2.12 2.4,1.4 4.27,3.36 5.6,5.86 1.34,2.5 2.01,5.42 2.01,8.77l0 2.48 -30.15 0 0.15 -3.64 24.97 0c0,-3.4 -1,-6.13 -3.02,-8.19 -2.01,-2.07 -4.67,-3.1 -7.97,-3.1 -2.43,0 -4.55,0.56 -6.37,1.68 -1.82,1.11 -3.22,2.7 -4.19,4.76 -0.97,2.07 -1.46,4.51 -1.46,7.32 0,4.66 1.08,8.28 3.24,10.85 2.16,2.57 5.23,3.86 9.21,3.86 2.87,0 5.22,-0.6 7.07,-1.82 1.84,-1.21 3.08,-2.98 3.71,-5.31l4.81 0c-0.92,3.68 -2.72,6.51 -5.39,8.48 -2.67,1.97 -6.09,2.95 -10.27,2.95z"/>
   <path id="8" class="fil3" d="M1894.12 1452.38c-3.4,0 -6.4,-0.78 -8.99,-2.33 -2.6,-1.56 -4.63,-3.72 -6.08,-6.48 -1.46,-2.77 -2.19,-6 -2.19,-9.69 0,-3.64 0.72,-6.85 2.15,-9.65 1.43,-2.79 3.41,-4.97 5.93,-6.55 2.53,-1.58 5.47,-2.37 8.81,-2.37 3.21,0 6.01,0.71 8.41,2.12 2.41,1.4 4.28,3.36 5.61,5.86 1.34,2.5 2,5.42 2,8.77l0 2.48 -30.14 0 0.14 -3.64 24.98 0c0,-3.4 -1.01,-6.13 -3.02,-8.19 -2.02,-2.07 -4.68,-3.1 -7.98,-3.1 -2.42,0 -4.55,0.56 -6.37,1.68 -1.82,1.11 -3.21,2.7 -4.18,4.76 -0.98,2.07 -1.46,4.51 -1.46,7.32 0,4.66 1.08,8.28 3.24,10.85 2.16,2.57 5.23,3.86 9.21,3.86 2.86,0 5.22,-0.6 7.06,-1.82 1.85,-1.21 3.09,-2.98 3.72,-5.31l4.8 0c-0.92,3.68 -2.71,6.51 -5.39,8.48 -2.66,1.97 -6.09,2.95 -10.26,2.95z"/>
   <path id="9" class="fil3" d="M1936.2 1415.83l0 4.51 -2.76 0c-3.25,0 -5.84,0.99 -7.76,2.98 -1.91,2 -2.87,4.69 -2.87,8.09l0 20.09 -5.03 0 0 -35.24 4.74 0 0.43 6.92 -0.51 0c0.49,-2.28 1.68,-4.14 3.57,-5.57 1.89,-1.43 4.2,-2.15 6.92,-2.15 0.53,0 1.07,0.03 1.6,0.07 0.53,0.05 1.09,0.15 1.67,0.3z"/>
   <path id="10" class="fil3" d="M1939.92 1441.6l4.8 0c0,2.04 0.73,3.65 2.19,4.84 1.46,1.19 3.4,1.79 5.82,1.79 2.72,0 4.85,-0.55 6.38,-1.64 1.52,-1.09 2.29,-2.59 2.29,-4.48 0,-1.46 -0.41,-2.62 -1.24,-3.49 -0.82,-0.88 -2.28,-1.58 -4.37,-2.12l-6.04 -1.53c-3.06,-0.77 -5.34,-1.96 -6.85,-3.56 -1.5,-1.61 -2.25,-3.6 -2.25,-5.97 0,-2.04 0.53,-3.83 1.6,-5.36 1.07,-1.53 2.56,-2.7 4.48,-3.53 1.91,-0.82 4.13,-1.24 6.66,-1.24 2.47,0 4.63,0.44 6.48,1.32 1.84,0.87 3.29,2.09 4.33,3.67 1.05,1.58 1.59,3.46 1.64,5.65l-4.88 0c-0.05,-2.09 -0.75,-3.69 -2.11,-4.81 -1.36,-1.12 -3.23,-1.67 -5.61,-1.67 -2.47,0 -4.38,0.51 -5.71,1.52 -1.34,1.02 -2.01,2.48 -2.01,4.37 0,2.72 1.92,4.57 5.76,5.54l6.04 1.53c3.06,0.77 5.3,1.91 6.74,3.42 1.43,1.5 2.14,3.52 2.14,6.04 0,2.09 -0.55,3.93 -1.67,5.54 -1.12,1.6 -2.68,2.82 -4.7,3.67 -2.01,0.85 -4.35,1.28 -7.02,1.28 -3.94,0 -7.07,-0.98 -9.4,-2.95 -2.33,-1.97 -3.49,-4.58 -3.49,-7.83z"/>
   <g>
    <path class="fil2" d="M1413.57 1219.42c8.26,0 14.99,-2.45 20.17,-7.35 5.19,-4.9 7.78,-11.09 7.78,-18.58 0,-6.92 -2.59,-12.68 -7.78,-17.29 -5.18,-4.61 -11.91,-6.91 -20.17,-6.91 -8.26,0 -14.98,2.4 -20.16,7.2 -5.19,4.8 -7.78,10.76 -7.78,17.86 0,7.11 2.59,13.07 7.78,17.86 5.18,4.8 11.9,7.21 20.16,7.21z"/>
    <path class="fil2" d="M1468.02 1238.34l0 55.16c0,4.96 -3.83,8.89 -8.75,9.46l-0.11 0.01c-2.69,0.04 -5,-1.43 -6.28,-3.58l3.4 -22.84c0.19,-1.26 -0.8,-2.41 -2.08,-2.41 -1.04,0 -1.92,0.77 -2.08,1.79l-0.73 4.91 -1.42 9.55 0 -0.07 -2.28 15.33 -11.64 78.65 -44.46 0 -10.78 -72.84 -0.58 -3.94 -2.55 -17.2 0 0.06 -0.21 -1.44 -1.2 -8.13 -0.73 -4.88c-0.15,-1.02 -1.04,-1.79 -2.08,-1.79 -1.28,0 -2.27,1.15 -2.08,2.41l3.38 22.84c-1.27,2.15 -3.58,3.62 -6.27,3.58 -0.06,0 -0.13,-0.01 -0.19,-0.01 -4.91,-0.19 -8.68,-4.49 -8.68,-9.42l0 -55.2c0,-5 4.05,-9.03 9.04,-9.03l36.45 0 3.43 7.13 -4.12 37.7 -3.11 28.33 12.51 8.66 12.51 -8.66 -3.09 -28.33 -4.12 -37.7 3.43 -7.13 36.45 0c4.99,0 9.02,4.03 9.02,9.03z"/>
   </g>
  </g>
 </g>
</svg>
